# xmcd
#
# Track frame offsets:
#	150
#	11876
#	35328
#	50225
#	64891
#	79266
#	104337
#	119581
#	144962
#	158264
#	176336
#	192293
#	209422
#
# Disc length: 2964 seconds
# Revision: 0
# Processed by: cddbd v1.5.2PL0 Copyright (c) Steve Scherf et al.
# Submitted via: dBpowerAMP V12.0
#
DISCID=b30b920d
DTITLE=Sherman Lee Dillon - 309 Blues
DYEAR=2014
DGENRE=Blues
TTITLE0=Oh Red
TTITLE1=Down Home Blues
TTITLE2=That Mean Conductor
TTITLE3=Can't Help Worrying About Me
TTITLE4=Shame, Shame, Shame
TTITLE5=Today, I Started Loving You Again
TTITLE6=I'm Gonna Marry You
TTITLE7=Luberta
TTITLE8=I'm Gettin' Over
TTITLE9=You Win Again
TTITLE10=One More Beer
TTITLE11=I Just Want Yo' Love
TTITLE12=309 Blues
EXTD=
EXTT0=
EXTT1=
EXTT2=
EXTT3=
EXTT4=
EXTT5=
EXTT6=
EXTT7=
EXTT8=
EXTT9=
EXTT10=
EXTT11=
EXTT12=
PLAYORDER=
